PathFileType	4	(X/Y/Z)	C:/Users/beibeiliu/ov580/test_trc/User2\sequence.9_training_dense_left.trc
DataRate	CameraRate	NumFrames	NumMarkers	Units	OrigDataRate	OrigDataStartFrame	OrigNumFrames
120	120	12	19	mm	120	177	353
Frame#	Time	ThumbCMC			ThumbMCP			ThumbIP			ThumbTip			IndexMCP			IndexPIP			IndexTip			MiddleMCP			MiddlePIP			MiddleTip			RingMCP			RingPIP			RingTip			PinkyMCP			PinkyPIP			PinkyTip			BackHand1			BackHand2			BackHand3	
		X0	Y0	Z0	X1	Y1	Z1	X2	Y2	Z2	X3	Y3	Z3	X4	Y4	Z4	X5	Y5	Z5	X6	Y6	Z6	X7	Y7	Z7	X8	Y8	Z8	X9	Y9	Z9	X10	Y10	Z10	X11	Y11	Z11	X12	Y12	Z12	X13	Y13	Z13	X14	Y14	Z14	X15	Y15	Z15	X16	Y16	Z16	X17	Y17	Z17	X18	Y18	Z18	
176	1.46667	-154.62	12.5516	87.961	-159.465	-5.61225	63.9361	-175.113	-19.6243	38.3843	-183.185	-34.3419	22.3323	-209.192	24.0286	26.9574	-231.966	22.1737	6.50545	-249.075	20.3817	-10.5833	-227.331	40.3408	26.1969	-246.763	33.3358	9.16047	-269.892	30.9919	-16.1057	-236.331	54.3353	40.1243	-254.564	50.4046	23.6113	-272.994	42.0069	-0.0841168	-235.458	64.5553	60.4751	-257.144	61.933	42.1454	-269.108	58.7331	23.4215	-191.035	71.0257	78.9373	-168.147	76.6003	97.8077	-161.229	44.5352	72.4113	
177	1.475	-149.018	9.50516	89.2896	-154.511	-7.32298	63.7991	-166.433	-19.9435	38.043	-175.642	-33.2795	17.1451	-200.919	21.532	18.7852	-219.419	21.2851	0.873028	-238.84	18.7748	-21.554	-217.665	38.5298	23.3724	-240.139	32.6907	-0.863322	-258.16	31.3114	-21.8501	-228.834	48.9383	32.3878	-246.289	46.9265	17.3809	-262.43	41.1334	-9.13094	-233.289	65.4602	59.6322	-250.288	59.9274	37.6474	-263.32	56.3433	14.2499	-191.525	68.6817	74.8504	-169.054	75.8013	102.819	-158.06	45.9734	76.2116	
178	1.48333	-144.481	5.70257	92.9485	-148.819	-6.52496	67.4188	-153.046	-23.4836	34.7799	-157.492	-37.4405	18.5358	-182.019	18.3953	18.9307	-198.421	20.6718	-4.80904	-212.774	17.9025	-32.497	-199.816	32.5028	12.0683	-217.047	27.5906	-11.8673	-231.605	26.8312	-36.4194	-212.547	46.2663	25.945	-230.046	45.2197	4.35232	-237.423	37.8225	-21.2192	-223.896	60.5705	47.2395	-233.649	53.0946	27.7755	-242.053	49.235	2.14251	-186.149	65.2279	75.1067	-165.382	69.2691	99.7877	-149.972	41.054	78.7326	
179	1.49167	-139.897	1.08424	100.603	-135.417	-13.7065	75.8452	-139.828	-25.1813	40.4116	-141.87	-37.7322	23.0745	-162.353	16.2724	14.8362	-167.324	13.9588	-7.16043	-181.366	17.2962	-32.6482	-176.378	29.0805	11.9412	-187.242	24.9193	-14.6805	-198.324	24.5891	-44.0138	-196.421	44.9079	21.1772	-202.478	38.8846	-2.40361	-207.76	34.9055	-32.3039	-209.274	54.8649	38.2488	-213.841	47.9388	14.0239	-218.016	45.9044	-8.98095	-177.112	59.5265	76.2082	-163.385	62.4005	105.562	-144.386	37.5099	86.1927	
180	1.5	-136.198	-2.0666	102.903	-125.4	-17.8328	80.4637	-122.448	-28.7325	41.1743	-124.627	-38.4891	20.2744	-142.972	15.5494	21.7911	-145.325	14.6331	-9.19736	-147.199	12.6847	-36.4445	-154.432	26.186	8.1987	-158.482	23.3724	-21.3549	-162.764	23.0595	-50.4805	-175.025	41.6272	12.8645	-175.288	35.7107	-6.31997	-176.576	33.5555	-37.5785	-189.684	48.1224	32.4903	-191.553	45.5556	8.78319	-190.273	44.8347	-15.0221	-164.716	52.4554	72.4681	-160.782	61.3261	101.691	-141.115	33.7831	89.5835	
181	1.50833	-133.063	-4.34847	104.225	-115.102	-20.7428	79.9692	-109.667	-30.7903	48.9097	-109.3	-38.6131	24.3088	-124.302	13.8735	20.5481	-124.812	13.7433	-3.05214	-122.864	11.6836	-36.2222	-138.954	28.111	12.1122	-136.911	23.1897	-15.5856	-138.047	25.7994	-50.8147	-160.042	41.684	17.5178	-156.127	37.0332	-11.8698	-153.244	34.0819	-36.0887	-180.659	49.9087	32.2768	-173.066	42.8973	5.00523	-169.091	46.2854	-18.4715	-157.613	50.4278	73.7815	-159.538	56.4859	107.182	-134.441	31.8051	88.5971	
182	1.51667	-130.814	-5.99706	109.274	-110.498	-20.9227	83.8323	-101.881	-29.9232	49.6027	-100.055	-37.9546	29.1933	-115.468	14.8612	27.1965	-112.138	15.3588	0.570099	-109.86	16.5443	-31.6902	-127.922	28.8629	14.7441	-125.454	27.746	-18.2435	-124.257	29.0171	-43.7493	-146.164	38.1084	15.7752	-144.818	38.2271	-9.66387	-139.781	38.506	-39.216	-169.807	48.4224	29.9258	-168.175	48.5596	7.09141	-158.675	48.3425	-18.5307	-156.113	50.3173	75.6044	-156.235	53.9934	109.411	-130.442	29.6747	94.7157	
183	1.525	-128.561	-5.2383	107.871	-108.071	-21.4592	84.6773	-98.8795	-29.0789	51.7105	-100.824	-32.6649	26.5467	-113.564	18.5689	26.3497	-105.604	17.4428	-3.22044	-104.083	19.0634	-27.9494	-127.359	32.8005	17.7321	-121.762	30.8863	-17.1255	-118.972	32.323	-46.29	-145.343	41.8249	18.4814	-143.012	43.0141	-9.35812	-135.967	39.9111	-34.7442	-168.66	49.8146	32.2293	-161.668	45.7294	6.52572	-153.026	50.3169	-12.5846	-151.73	48.1834	79.2489	-156.488	55.7887	109.296	-129.03	30.1483	97.6728	
184	1.53333	-125.736	-6.60503	104.213	-109.612	-21.8501	82.2314	-104.058	-27.8607	48.853	-103.412	-33.8466	26.8006	-116.462	19.0932	26.6523	-112.174	19.7734	-0.0727438	-112.806	24.7955	-28.2497	-130.529	33.7713	12.1335	-125.15	30.9359	-13.5464	-123.314	33.8773	-44.362	-148.482	44.8918	15.6223	-145.605	42.8723	-7.64388	-140.735	43.6586	-37.5174	-169.167	50.2578	31.2522	-163.773	47.7283	7.30048	-160.097	53.2076	-14.109	-152.771	50.4113	77.5377	-155.619	51.6212	110.387	-127.608	29.3752	93.9729	
185	1.54167	-129.33	-7.88828	102.537	-115.789	-21.0532	76.5212	-111.318	-27.2749	41.5498	-116.096	-30.7335	18.1907	-124.787	20.4984	21.1472	-124.984	23.0017	-3.47971	-128.311	27.104	-31.2987	-137.014	32.6421	12.3746	-141.177	33.4579	-15.8365	-141.399	36.408	-45.876	-157.848	44.3617	20.5013	-156.093	43.2202	-4.87909	-155.607	42.9998	-35.7335	-176.474	49.2662	37.8789	-175.99	51.1498	7.25714	-171.306	52.0608	-12.8398	-155.664	50.5425	77.9604	-154.457	50.9812	107.751	-129.557	28.272	91.7041	
186	1.55	-132.207	-8.30508	99.8926	-125.826	-22.2065	71.4683	-125.995	-31.7543	37.448	-134.38	-34.7978	15.8977	-142.328	19.9199	21.82	-146.074	24.4317	-10.6889	-152.173	27.6163	-32.6931	-157.951	35.5902	14.9709	-161.939	33.4897	-18.5367	-167.018	37.7375	-45.965	-172.522	44.2909	17.5041	-178.352	46.6157	-6.7224	-181.608	46.5336	-36.5185	-192.077	54.4146	37.3053	-191.736	50.5591	14.0378	-188.96	51.1527	-12.5096	-167.418	54.4297	80.7379	-157.648	55.1727	108.683	-134.989	28.4657	91.943	
187	1.55833	-143.908	-4.10974	96.7684	-140.899	-19.9567	69.5784	-146.604	-30.9604	34.0691	-155.239	-35.8734	12.221	-163.076	21.4132	16.5961	-168.609	22.1387	-6.94428	-182.24	27.0244	-36.175	-176.87	32.8225	10.7843	-189.761	34.407	-14.6904	-198.933	35.649	-40.9451	-191.048	44.577	20.064	-200.067	43.873	-2.63252	-208.725	44.4931	-27.3478	-207.932	55.7041	42.452	-214.129	53.6594	18.5789	-216.762	52.3599	-5.67729	-173.971	51.8324	76.4127	-165.383	57.7252	108.081	-146.289	34.0921	84.7532	
